<?xml version="1.0" encoding="utf-8"?>
<!-- Generator: Adobe Illustrator 25.0.0, SVG Export Plug-In . SVG Version: 6.00 Build 0)  -->
<svg version="1.1" id="Calque_1" xmlns="http://www.w3.org/2000/svg" xmlns:xlink="http://www.w3.org/1999/xlink" x="0px" y="0px"
	 viewBox="0 0 595.28 841.89" style="enable-background:new 0 0 595.28 841.89;" xml:space="preserve">
<style type="text/css">
	.st0{fill:url(#SVGID_1_);}
	.st1{fill:url(#SVGID_2_);}
	.st2{fill:url(#SVGID_3_);}
</style>
<g>
	<linearGradient id="SVGID_1_" gradientUnits="userSpaceOnUse" x1="16.1828" y1="369.8883" x2="579.0928" y2="369.8883">
		<stop  offset="0.1123" style="stop-color:#F2EFDD;stop-opacity:0.94"/>
		<stop  offset="0.1788" style="stop-color:#F6F3E8;stop-opacity:0.9486"/>
		<stop  offset="0.1972" style="stop-color:#FFFFFF"/>
		<stop  offset="0.4296" style="stop-color:#FFFFFF"/>
		<stop  offset="0.7246" style="stop-color:#EDE9CF;stop-opacity:0.9217"/>
		<stop  offset="0.7291" style="stop-color:#FFFFFF"/>
		<stop  offset="0.7961" style="stop-color:#EAE4C5;stop-opacity:0.92"/>
		<stop  offset="1" style="stop-color:#B7AD34;stop-opacity:0.9"/>
	</linearGradient>
	<polygon class="st0" points="16.18,207.39 297.64,44.89 579.09,207.39 579.09,532.39 297.64,694.88 16.18,532.39 	"/>
	<g>
		<linearGradient id="SVGID_2_" gradientUnits="userSpaceOnUse" x1="18.5788" y1="296.2302" x2="558.177" y2="296.2302">
			<stop  offset="0" style="stop-color:#F9ED32"/>
			<stop  offset="0.2419" style="stop-color:#FBB040"/>
			<stop  offset="0.4162" style="stop-color:#F9ED32"/>
			<stop  offset="1" style="stop-color:#B7AD34;stop-opacity:0.9"/>
		</linearGradient>
		<path class="st1" d="M18.58,245.72h104.38v5.05c0,0-18.52,0.42-19.78,2.53c-1.26,2.1-10.94,0-6.73,13.05
			c4.21,13.05,36.62,77.87,36.62,77.87h59.35l15.99-35.36l-24.41-44.19c0,0-2.1-8-17.68-11.36s-15.57-3.37-15.57-3.37l1.26-4.21
			h82.5h31.15v7.16l-15.57-0.42c0,0-21.89-1.26-16.84,13.05c5.05,14.31,26.1,56.4,26.1,56.4l9.26,19.36v2.95h62.29l19.36-40.83
			l8.42-21.05l2.95-15.15c0,0,1.26-10.1-7.58-12.63c-8.84-2.53-20.62-2.53-20.62-2.53l-0.84-6.31h83.34v5.47l-7.58,1.68
			c0,0-13.47-0.42-21.05,11.79l-18.52,38.3l-18.1,41.25h116.17v-68.19c0,0,2.95-20.62-18.94-22.73c-21.89-2.1-21.89-2.1-21.89-2.1
			l0.42-5.47h126.27v6.31l-21.05,0.84c0,0-21.47-2.53-21.05,21.05s0.84,70.29,0.84,70.29l46.72,2.53H425.59H38.36l45.46-9.68
			l-55.56-82.5l-9.68-4.63V245.72z"/>
		<linearGradient id="SVGID_3_" gradientUnits="userSpaceOnUse" x1="38.7822" y1="421.2811" x2="556.4933" y2="421.2811">
			<stop  offset="0" style="stop-color:#FFFFFF"/>
			<stop  offset="0.2419" style="stop-color:#C8CACC"/>
			<stop  offset="1" style="stop-color:#000000"/>
		</linearGradient>
		<path class="st2" d="M510.19,406.09c0.66-9.66,0-30.73,0-30.73l46.3-3.37l-484.46-2.1H38.78v2.1h61.87l45.04,100.6h5.47
			l46.72-100.6h42.09l48.4,100.6h3.79l46.3-100.6l128.38,2.1c0,0,0.42,85.02-14.73,86.29c-15.15,1.26-17.26-20.62-17.26-20.62
			s-8.84-8.42-21.47-7.16c-12.63,1.26-17.26,7.16-17.26,13.89c0,0,1.68,13.05,7.16,18.52c2.81,2.81,20.62,8.42,35.36,7.58
			c14.73-0.84,36.2-2.53,49.67-14.73C488.31,457.86,507.67,443.13,510.19,406.09z"/>
	</g>
</g>
</svg>
